<svg width="180" height="26" viewBox="0 0 180 26" fill="none" xmlns="http://www.w3.org/2000/svg">
<path d="M33.1905 18.9493C32.0161 18.9493 30.9592 18.7463 30.0197 18.3405C29.0803 17.9177 28.3421 17.3258 27.8053 16.5648C27.2684 15.8037 27 14.9159 27 13.9012H30.0701C30.1372 14.6622 30.4308 15.2879 30.9508 15.7784C31.4877 16.2688 32.2342 16.514 33.1905 16.514C34.1803 16.514 34.952 16.2773 35.5056 15.8037C36.0592 15.3133 36.336 14.6876 36.336 13.9266C36.336 13.3347 36.1599 12.8527 35.8076 12.4806C35.472 12.1086 35.0442 11.8211 34.5242 11.6182C34.0209 11.4152 33.3163 11.1954 32.4104 10.9586C31.2696 10.6542 30.3385 10.3498 29.6171 10.0454C28.9125 9.72408 28.3086 9.23364 27.8053 8.5741C27.302 7.91455 27.0503 7.03516 27.0503 5.93591C27.0503 4.92123 27.302 4.03338 27.8053 3.27236C28.3086 2.51135 29.0132 1.9279 29.9191 1.52203C30.825 1.11615 31.8735 0.913216 33.0646 0.913216C34.759 0.913216 36.1431 1.34446 37.2168 2.20694C38.3072 3.05251 38.9112 4.2194 39.0286 5.70761H35.8579C35.8076 5.06497 35.5056 4.51535 34.952 4.05874C34.3983 3.60214 33.6686 3.37383 32.7627 3.37383C31.9406 3.37383 31.2696 3.58522 30.7495 4.00801C30.2294 4.4308 29.9694 5.03961 29.9694 5.83444C29.9694 6.37561 30.1288 6.82376 30.4475 7.1789C30.7831 7.51713 31.2025 7.78772 31.7058 7.99065C32.209 8.19359 32.8969 8.41344 33.7692 8.6502C34.9268 8.97152 35.8663 9.29283 36.5877 9.61415C37.3258 9.93547 37.9465 10.4344 38.4498 11.1108C38.9699 11.7704 39.2299 12.6582 39.2299 13.7744C39.2299 14.6707 38.9867 15.5162 38.5002 16.3111C38.0304 17.1059 37.3342 17.7486 36.4115 18.239C35.5056 18.7125 34.4319 18.9493 33.1905 18.9493Z" fill="#996DFF"/>
<path d="M41.6587 11.7196C41.6587 10.316 41.9439 9.07299 42.5143 7.99065C43.1014 6.90832 43.8899 6.07121 44.8797 5.4793C45.8863 4.87049 46.9935 4.56609 48.2014 4.56609C49.2919 4.56609 50.2398 4.78594 51.045 5.22563C51.8671 5.64842 52.5213 6.18113 53.0078 6.82376V4.79439H55.9018V18.7717H53.0078V16.6916C52.5213 17.3511 51.8587 17.9008 51.0199 18.3405C50.181 18.7802 49.2248 19 48.1511 19C46.96 19 45.8695 18.6956 44.8797 18.0868C43.8899 17.4611 43.1014 16.5986 42.5143 15.4993C41.9439 14.3832 41.6587 13.1233 41.6587 11.7196ZM53.0078 11.7704C53.0078 10.8064 52.8065 9.96929 52.4039 9.25901C52.018 8.54873 51.5064 8.00757 50.8689 7.63551C50.2314 7.26346 49.5435 7.07744 48.8054 7.07744C48.0672 7.07744 47.3794 7.26346 46.7419 7.63551C46.1044 7.99065 45.5843 8.52336 45.1817 9.23364C44.7958 9.92701 44.6029 10.7557 44.6029 11.7196C44.6029 12.6836 44.7958 13.5291 45.1817 14.2563C45.5843 14.9835 46.1044 15.5416 46.7419 15.9306C47.3962 16.3026 48.084 16.4887 48.8054 16.4887C49.5435 16.4887 50.2314 16.3026 50.8689 15.9306C51.5064 15.5585 52.018 15.0174 52.4039 14.3071C52.8065 13.5799 53.0078 12.7343 53.0078 11.7704Z" fill="#996DFF"/>
<path d="M62.5385 6.8745C63.025 6.19804 63.6877 5.64842 64.5265 5.22563C65.3821 4.78594 66.3299 4.56609 67.3701 4.56609C68.5947 4.56609 69.702 4.86204 70.6918 5.45394C71.6816 6.04584 72.4617 6.89141 73.0321 7.99065C73.6024 9.07299 73.8876 10.316 73.8876 11.7196C73.8876 13.1233 73.6024 14.3832 73.0321 15.4993C72.4617 16.5986 71.6732 17.4611 70.6666 18.0868C69.6768 18.6956 68.5779 19 67.3701 19C66.2964 19 65.3401 18.7886 64.5013 18.3658C63.6793 17.943 63.025 17.4019 62.5385 16.7423V18.7717H59.6697V0H62.5385V6.8745ZM70.9686 11.7196C70.9686 10.7557 70.7673 9.92701 70.3646 9.23364C69.9788 8.52336 69.4587 7.99065 68.8044 7.63551C68.1669 7.26346 67.4791 7.07744 66.7409 7.07744C66.0196 7.07744 65.3317 7.26346 64.6775 7.63551C64.04 8.00757 63.5199 8.54873 63.1173 9.25901C62.7314 9.96929 62.5385 10.8064 62.5385 11.7704C62.5385 12.7343 62.7314 13.5799 63.1173 14.3071C63.5199 15.0174 64.04 15.5585 64.6775 15.9306C65.3317 16.3026 66.0196 16.4887 66.7409 16.4887C67.4791 16.4887 68.1669 16.3026 68.8044 15.9306C69.4587 15.5416 69.9788 14.9835 70.3646 14.2563C70.7673 13.5291 70.9686 12.6836 70.9686 11.7196Z" fill="#996DFF"/>
<path d="M75.7683 11.7196C75.7683 10.316 76.0535 9.07299 76.6239 7.99065C77.2111 6.90832 77.9995 6.07121 78.9893 5.4793C79.9959 4.87049 81.1032 4.56609 82.311 4.56609C83.4015 4.56609 84.3494 4.78594 85.1546 5.22563C85.9767 5.64842 86.6309 6.18113 87.1175 6.82376V4.79439H90.0114V18.7717H87.1175V16.6916C86.6309 17.3511 85.9683 17.9008 85.1295 18.3405C84.2906 18.7802 83.3344 19 82.2607 19C81.0696 19 79.9791 18.6956 78.9893 18.0868C77.9995 17.4611 77.2111 16.5986 76.6239 15.4993C76.0535 14.3832 75.7683 13.1233 75.7683 11.7196ZM87.1175 11.7704C87.1175 10.8064 86.9161 9.96929 86.5135 9.25901C86.1277 8.54873 85.616 8.00757 84.9785 7.63551C84.341 7.26346 83.6531 7.07744 82.915 7.07744C82.1768 7.07744 81.489 7.26346 80.8515 7.63551C80.214 7.99065 79.6939 8.52336 79.2913 9.23364C78.9055 9.92701 78.7125 10.7557 78.7125 11.7196C78.7125 12.6836 78.9055 13.5291 79.2913 14.2563C79.6939 14.9835 80.214 15.5416 80.8515 15.9306C81.5058 16.3026 82.1936 16.4887 82.915 16.4887C83.6531 16.4887 84.341 16.3026 84.9785 15.9306C85.616 15.5585 86.1277 15.0174 86.5135 14.3071C86.9161 13.5799 87.1175 12.7343 87.1175 11.7704Z" fill="#996DFF"/>
<path d="M99.2652 11.7957L105.657 18.7717H101.782L96.6481 12.7597V18.7717H93.7793V0H96.6481V10.9079L101.681 4.79439H105.657L99.2652 11.7957Z" fill="#996DFF"/>
<path d="M106.757 11.7196C106.757 10.316 107.042 9.07299 107.613 7.99065C108.2 6.90832 108.988 6.07121 109.978 5.4793C110.985 4.87049 112.092 4.56609 113.3 4.56609C114.39 4.56609 115.338 4.78594 116.143 5.22563C116.965 5.64842 117.62 6.18113 118.106 6.82376V4.79439H121V18.7717H118.106V16.6916C117.62 17.3511 116.957 17.9008 116.118 18.3405C115.279 18.7802 114.323 19 113.249 19C112.058 19 110.968 18.6956 109.978 18.0868C108.988 17.4611 108.2 16.5986 107.613 15.4993C107.042 14.3832 106.757 13.1233 106.757 11.7196ZM118.106 11.7704C118.106 10.8064 117.905 9.96929 117.502 9.25901C117.116 8.54873 116.605 8.00757 115.967 7.63551C115.33 7.26346 114.642 7.07744 113.904 7.07744C113.165 7.07744 112.478 7.26346 111.84 7.63551C111.203 7.99065 110.683 8.52336 110.28 9.23364C109.894 9.92701 109.701 10.7557 109.701 11.7196C109.701 12.6836 109.894 13.5291 110.28 14.2563C110.683 14.9835 111.203 15.5416 111.84 15.9306C112.494 16.3026 113.182 16.4887 113.904 16.4887C114.642 16.4887 115.33 16.3026 115.967 15.9306C116.605 15.5585 117.116 15.0174 117.502 14.3071C117.905 13.5799 118.106 12.7343 118.106 11.7704Z" fill="#996DFF"/>
<path d="M139.191 1.16766V19.2016H136.276V11.3134H127.915V19.2016H125V1.16766H127.915V8.9002H136.276V1.16766H139.191Z" fill="#00B37E"/>
<path d="M155.942 11.7026C155.942 12.2389 155.908 12.7232 155.84 13.1557H145.075C145.16 14.2974 145.578 15.2142 146.328 15.9062C147.078 16.5981 147.998 16.9441 149.089 16.9441C150.657 16.9441 151.766 16.2781 152.413 14.9461H155.558C155.132 16.2608 154.357 17.342 153.232 18.1896C152.124 19.02 150.743 19.4351 149.089 19.4351C147.742 19.4351 146.532 19.1324 145.458 18.5269C144.401 17.9042 143.566 17.0393 142.952 15.9321C142.356 14.8077 142.057 13.5103 142.057 12.0399C142.057 10.5695 142.347 9.28077 142.927 8.17365C143.523 7.04923 144.35 6.1843 145.407 5.57884C146.481 4.97339 147.708 4.67066 149.089 4.67066C150.419 4.67066 151.604 4.96474 152.643 5.55289C153.683 6.14105 154.493 6.97139 155.073 8.04391C155.652 9.09913 155.942 10.3187 155.942 11.7026ZM152.899 10.7685C152.882 9.67864 152.499 8.80506 151.748 8.1477C150.998 7.49035 150.069 7.16168 148.961 7.16168C147.956 7.16168 147.095 7.49035 146.379 8.1477C145.663 8.78776 145.237 9.66134 145.1 10.7685H152.899Z" fill="#00B37E"/>
<path d="M161.726 0V19.2016H158.811V0H161.726Z" fill="#00B37E"/>
<path d="M168.468 7.00599C168.962 6.34864 169.636 5.79508 170.488 5.34531C171.34 4.89554 172.303 4.67066 173.377 4.67066C174.605 4.67066 175.721 4.98204 176.727 5.60479C177.75 6.21025 178.551 7.06653 179.131 8.17365C179.71 9.28077 180 10.5522 180 11.988C180 13.4238 179.71 14.7126 179.131 15.8543C178.551 16.9787 177.75 17.8609 176.727 18.501C175.721 19.1238 174.605 19.4351 173.377 19.4351C172.303 19.4351 171.349 19.2189 170.513 18.7864C169.678 18.3367 168.996 17.7831 168.468 17.1257V26H165.553V4.90419H168.468V7.00599ZM177.034 11.988C177.034 11.002 176.829 10.1544 176.42 9.44511C176.028 8.71856 175.5 8.17365 174.835 7.81038C174.187 7.42981 173.488 7.23952 172.738 7.23952C172.005 7.23952 171.306 7.42981 170.641 7.81038C169.994 8.19095 169.465 8.74451 169.056 9.47106C168.664 10.1976 168.468 11.0539 168.468 12.0399C168.468 13.0259 168.664 13.8909 169.056 14.6347C169.465 15.3613 169.994 15.9148 170.641 16.2954C171.306 16.676 172.005 16.8663 172.738 16.8663C173.488 16.8663 174.187 16.676 174.835 16.2954C175.5 15.8975 176.028 15.3267 176.42 14.5828C176.829 13.839 177.034 12.9741 177.034 11.988Z" fill="#00B37E"/>
<path fill-rule="evenodd" clip-rule="evenodd" d="M9.89943 1.20292C7.60031 1.20292 5.39501 2.09974 3.76877 3.69663C2.14246 5.29358 1.22851 7.45987 1.22851 9.71902V18.0814C1.22823 18.1019 1.23209 18.1222 1.23991 18.1411C1.24774 18.16 1.25929 18.1771 1.2738 18.1913C1.28831 18.2056 1.30549 18.2167 1.32427 18.2242C1.34304 18.2317 1.36309 18.2354 1.38326 18.2352L1.39141 18.2351L9.89943 18.2351C11.0379 18.2351 12.1652 18.0149 13.2171 17.5871C14.269 17.1593 15.2248 16.5321 16.0301 15.7414C16.8353 14.9507 17.4742 14.0119 17.9101 12.9785C18.346 11.9452 18.5703 10.8376 18.5703 9.71902C18.5703 8.60043 18.346 7.49284 17.9101 6.4595C17.4742 5.42616 16.8353 4.48735 16.0301 3.69663C15.2248 2.90592 14.269 2.27878 13.2171 1.85094C12.1652 1.4231 11.0379 1.20292 9.89943 1.20292ZM9.89943 19.438H1.39481C1.21173 19.4398 1.03013 19.4058 0.860581 19.3382C0.689563 19.2699 0.534316 19.1687 0.403956 19.0407C0.273601 18.9127 0.17077 18.7605 0.101445 18.593C0.0327042 18.427 -0.00173549 18.2492 6.72849e-05 18.0701V9.71902C6.72849e-05 7.14191 1.04262 4.67002 2.89892 2.84723C4.75528 1.02437 7.2734 0 9.89943 0C11.1997 0 12.4871 0.251481 13.6883 0.740043C14.8895 1.2286 15.9808 1.94465 16.8999 2.84723C17.8191 3.7498 18.5481 4.82121 19.0455 6.00026C19.5428 7.1793 19.7988 8.44293 19.7988 9.71902C19.7988 10.9951 19.5428 12.2587 19.0455 13.4378C18.5481 14.6168 17.8191 15.6882 16.8999 16.5908C15.9808 17.4934 14.8895 18.2094 13.6883 18.698C12.4871 19.1866 11.1997 19.438 9.89943 19.438Z" fill="#00B37E"/>
<path fill-rule="evenodd" clip-rule="evenodd" d="M6.05566 8.52977C6.05566 8.1976 6.33066 7.92831 6.66989 7.92831H12.7254C13.0646 7.92831 13.3396 8.1976 13.3396 8.52977C13.3396 8.86195 13.0646 9.13123 12.7254 9.13123H6.66989C6.33066 9.13123 6.05566 8.86195 6.05566 8.52977Z" fill="#996DFF"/>
<path fill-rule="evenodd" clip-rule="evenodd" d="M6.05566 11.7011C6.05566 11.3689 6.33066 11.0996 6.66989 11.0996H12.7254C13.0646 11.0996 13.3396 11.3689 13.3396 11.7011C13.3396 12.0333 13.0646 12.3026 12.7254 12.3026H6.66989C6.33066 12.3026 6.05566 12.0333 6.05566 11.7011Z" fill="#996DFF"/>
</svg>
