<svg width="153" height="72" viewBox="0 0 153 72" fill="none" xmlns="http://www.w3.org/2000/svg">
<path fill-rule="evenodd" clip-rule="evenodd" d="M76.8436 2.04673C72.9317 2.04673 69.1795 3.57264 66.4124 6.28971C63.6453 9.00687 62.0903 12.6927 62.0903 16.5366V30.765C62.0898 30.7999 62.0964 30.8344 62.1097 30.8666C62.123 30.8987 62.1426 30.9278 62.1673 30.952C62.192 30.9763 62.2212 30.9952 62.2532 31.008C62.2851 31.0207 62.3193 31.027 62.3536 31.0266L62.3674 31.0264L76.8436 31.0265C78.7806 31.0265 80.6987 30.6519 82.4885 29.9239C84.2782 29.196 85.9046 28.1289 87.2747 26.7835C88.6448 25.4381 89.7318 23.8408 90.4735 22.0826C91.2151 20.3244 91.5969 18.4399 91.5969 16.5366C91.5969 14.6334 91.2151 12.7489 90.4735 10.9906C89.7318 9.23245 88.6448 7.63509 87.2747 6.28971C85.9046 4.94433 84.2782 3.87727 82.4885 3.14932C80.6987 2.42136 78.7806 2.04673 76.8436 2.04673ZM76.8436 33.0732H62.3732C62.0617 33.0762 61.7527 33.0185 61.4643 32.9033C61.1733 32.7872 60.9091 32.6151 60.6873 32.3973C60.4655 32.1795 60.2906 31.9204 60.1726 31.6355C60.0556 31.3529 59.997 31.0505 60.0001 30.7457V16.5366C60.0001 12.1518 61.774 7.94591 64.9324 4.84447C68.091 1.74294 72.3755 0 76.8436 0C79.0559 0 81.2465 0.427888 83.2902 1.25916C85.334 2.09043 87.1908 3.30877 88.7547 4.84447C90.3187 6.38017 91.5591 8.20315 92.4053 10.2093C93.2515 12.2154 93.687 14.3654 93.687 16.5366C93.687 18.7078 93.2515 20.8579 92.4053 22.864C91.5591 24.8701 90.3187 26.6931 88.7547 28.2288C87.1908 29.7645 85.334 30.9828 83.2902 31.8141C81.2465 32.6453 79.0559 33.0732 76.8436 33.0732Z" fill="#00B37E"/>
<path fill-rule="evenodd" clip-rule="evenodd" d="M70.3037 14.5132C70.3037 13.948 70.7716 13.4898 71.3488 13.4898H81.6521C82.2293 13.4898 82.6972 13.948 82.6972 14.5132C82.6972 15.0784 82.2293 15.5366 81.6521 15.5366H71.3488C70.7716 15.5366 70.3037 15.0784 70.3037 14.5132Z" fill="#996DFF"/>
<path fill-rule="evenodd" clip-rule="evenodd" d="M70.3037 19.909C70.3037 19.3438 70.7716 18.8857 71.3488 18.8857H81.6521C82.2293 18.8857 82.6972 19.3438 82.6972 19.909C82.6972 20.4742 82.2293 20.9324 81.6521 20.9324H71.3488C70.7716 20.9324 70.3037 20.4742 70.3037 19.909Z" fill="#996DFF"/>
<path d="M6.19045 64.9493C5.01611 64.9493 3.95921 64.7463 3.01973 64.3405C2.08026 63.9177 1.3421 63.3258 0.805262 62.5648C0.268421 61.8037 0 60.9159 0 59.9012H3.07006C3.13717 60.6622 3.43075 61.2879 3.95082 61.7784C4.48766 62.2688 5.2342 62.514 6.19045 62.514C7.18025 62.514 7.95196 62.2773 8.50558 61.8037C9.0592 61.3133 9.33601 60.6876 9.33601 59.9266C9.33601 59.3347 9.15986 58.8527 8.80755 58.4806C8.47203 58.1086 8.04423 57.8211 7.52417 57.6182C7.02088 57.4152 6.31627 57.1954 5.41035 56.9586C4.26957 56.6542 3.33848 56.3498 2.6171 56.0454C1.9125 55.7241 1.30855 55.2336 0.805262 54.5741C0.301973 53.9146 0.0503289 53.0352 0.0503289 51.9359C0.0503289 50.9212 0.301973 50.0334 0.805262 49.2724C1.30855 48.5113 2.01316 47.9279 2.91908 47.522C3.825 47.1162 4.87351 46.9132 6.06463 46.9132C7.75904 46.9132 9.14308 47.3445 10.2168 48.2069C11.3072 49.0525 11.9112 50.2194 12.0286 51.7076H8.85788C8.80755 51.065 8.50558 50.5154 7.95196 50.0587C7.39835 49.6021 6.66858 49.3738 5.76266 49.3738C4.94062 49.3738 4.26957 49.5852 3.7495 50.008C3.22944 50.4308 2.9694 51.0396 2.9694 51.8344C2.9694 52.3756 3.12878 52.8238 3.44753 53.1789C3.78305 53.5171 4.20246 53.7877 4.70575 53.9907C5.20904 54.1936 5.89687 54.4134 6.76924 54.6502C7.9268 54.9715 8.86627 55.2928 9.58765 55.6142C10.3258 55.9355 10.9465 56.4344 11.4498 57.1108C11.9699 57.7704 12.2299 58.6582 12.2299 59.7744C12.2299 60.6707 11.9867 61.5162 11.5002 62.3111C11.0304 63.1059 10.3342 63.7486 9.4115 64.239C8.50558 64.7125 7.4319 64.9493 6.19045 64.9493Z" fill="#996DFF"/>
<path d="M14.6587 57.7196C14.6587 56.316 14.9439 55.073 15.5143 53.9907C16.1014 52.9083 16.8899 52.0712 17.8797 51.4793C18.8863 50.8705 19.9935 50.5661 21.2014 50.5661C22.2919 50.5661 23.2398 50.7859 24.045 51.2256C24.8671 51.6484 25.5213 52.1811 26.0078 52.8238V50.7944H28.9018V64.7717H26.0078V62.6916C25.5213 63.3511 24.8587 63.9008 24.0199 64.3405C23.181 64.7802 22.2248 65 21.1511 65C19.96 65 18.8695 64.6956 17.8797 64.0868C16.8899 63.4611 16.1014 62.5986 15.5143 61.4993C14.9439 60.3832 14.6587 59.1233 14.6587 57.7196ZM26.0078 57.7704C26.0078 56.8064 25.8065 55.9693 25.4039 55.259C25.018 54.5487 24.5064 54.0076 23.8689 53.6355C23.2314 53.2635 22.5435 53.0774 21.8054 53.0774C21.0672 53.0774 20.3794 53.2635 19.7419 53.6355C19.1044 53.9907 18.5843 54.5234 18.1817 55.2336C17.7958 55.927 17.6029 56.7557 17.6029 57.7196C17.6029 58.6836 17.7958 59.5291 18.1817 60.2563C18.5843 60.9835 19.1044 61.5416 19.7419 61.9306C20.3962 62.3026 21.084 62.4887 21.8054 62.4887C22.5435 62.4887 23.2314 62.3026 23.8689 61.9306C24.5064 61.5585 25.018 61.0174 25.4039 60.3071C25.8065 59.5799 26.0078 58.7343 26.0078 57.7704Z" fill="#996DFF"/>
<path d="M35.5385 52.8745C36.025 52.198 36.6877 51.6484 37.5265 51.2256C38.3821 50.7859 39.3299 50.5661 40.3701 50.5661C41.5947 50.5661 42.702 50.862 43.6918 51.4539C44.6816 52.0458 45.4617 52.8914 46.0321 53.9907C46.6024 55.073 46.8876 56.316 46.8876 57.7196C46.8876 59.1233 46.6024 60.3832 46.0321 61.4993C45.4617 62.5986 44.6732 63.4611 43.6666 64.0868C42.6768 64.6956 41.5779 65 40.3701 65C39.2964 65 38.3401 64.7886 37.5013 64.3658C36.6793 63.943 36.025 63.4019 35.5385 62.7423V64.7717H32.6697V46H35.5385V52.8745ZM43.9686 57.7196C43.9686 56.7557 43.7673 55.927 43.3646 55.2336C42.9788 54.5234 42.4587 53.9907 41.8044 53.6355C41.1669 53.2635 40.4791 53.0774 39.7409 53.0774C39.0196 53.0774 38.3317 53.2635 37.6775 53.6355C37.04 54.0076 36.5199 54.5487 36.1173 55.259C35.7314 55.9693 35.5385 56.8064 35.5385 57.7704C35.5385 58.7343 35.7314 59.5799 36.1173 60.3071C36.5199 61.0174 37.04 61.5585 37.6775 61.9306C38.3317 62.3026 39.0196 62.4887 39.7409 62.4887C40.4791 62.4887 41.1669 62.3026 41.8044 61.9306C42.4587 61.5416 42.9788 60.9835 43.3646 60.2563C43.7673 59.5291 43.9686 58.6836 43.9686 57.7196Z" fill="#996DFF"/>
<path d="M48.7683 57.7196C48.7683 56.316 49.0535 55.073 49.6239 53.9907C50.2111 52.9083 50.9995 52.0712 51.9893 51.4793C52.9959 50.8705 54.1032 50.5661 55.311 50.5661C56.4015 50.5661 57.3494 50.7859 58.1546 51.2256C58.9767 51.6484 59.6309 52.1811 60.1175 52.8238V50.7944H63.0114V64.7717H60.1175V62.6916C59.6309 63.3511 58.9683 63.9008 58.1295 64.3405C57.2906 64.7802 56.3344 65 55.2607 65C54.0696 65 52.9791 64.6956 51.9893 64.0868C50.9995 63.4611 50.2111 62.5986 49.6239 61.4993C49.0535 60.3832 48.7683 59.1233 48.7683 57.7196ZM60.1175 57.7704C60.1175 56.8064 59.9161 55.9693 59.5135 55.259C59.1277 54.5487 58.616 54.0076 57.9785 53.6355C57.341 53.2635 56.6531 53.0774 55.915 53.0774C55.1768 53.0774 54.489 53.2635 53.8515 53.6355C53.214 53.9907 52.6939 54.5234 52.2913 55.2336C51.9055 55.927 51.7125 56.7557 51.7125 57.7196C51.7125 58.6836 51.9055 59.5291 52.2913 60.2563C52.6939 60.9835 53.214 61.5416 53.8515 61.9306C54.5058 62.3026 55.1936 62.4887 55.915 62.4887C56.6531 62.4887 57.341 62.3026 57.9785 61.9306C58.616 61.5585 59.1277 61.0174 59.5135 60.3071C59.9161 59.5799 60.1175 58.7343 60.1175 57.7704Z" fill="#996DFF"/>
<path d="M72.2652 57.7957L78.657 64.7717H74.7816L69.6481 58.7597V64.7717H66.7793V46H69.6481V56.9079L74.681 50.7944H78.657L72.2652 57.7957Z" fill="#996DFF"/>
<path d="M79.7569 57.7196C79.7569 56.316 80.0421 55.073 80.6125 53.9907C81.1997 52.9083 81.9882 52.0712 82.978 51.4793C83.9845 50.8705 85.0918 50.5661 86.2997 50.5661C87.3901 50.5661 88.338 50.7859 89.1433 51.2256C89.9653 51.6484 90.6196 52.1811 91.1061 52.8238V50.7944H94V64.7717H91.1061V62.6916C90.6196 63.3511 89.9569 63.9008 89.1181 64.3405C88.2793 64.7802 87.323 65 86.2493 65C85.0582 65 83.9678 64.6956 82.978 64.0868C81.9882 63.4611 81.1997 62.5986 80.6125 61.4993C80.0421 60.3832 79.7569 59.1233 79.7569 57.7196ZM91.1061 57.7704C91.1061 56.8064 90.9048 55.9693 90.5021 55.259C90.1163 54.5487 89.6046 54.0076 88.9671 53.6355C88.3296 53.2635 87.6418 53.0774 86.9036 53.0774C86.1655 53.0774 85.4776 53.2635 84.8401 53.6355C84.2026 53.9907 83.6826 54.5234 83.2799 55.2336C82.8941 55.927 82.7012 56.7557 82.7012 57.7196C82.7012 58.6836 82.8941 59.5291 83.2799 60.2563C83.6826 60.9835 84.2026 61.5416 84.8401 61.9306C85.4944 62.3026 86.1822 62.4887 86.9036 62.4887C87.6418 62.4887 88.3296 62.3026 88.9671 61.9306C89.6046 61.5585 90.1163 61.0174 90.5021 60.3071C90.9048 59.5799 91.1061 58.7343 91.1061 57.7704Z" fill="#996DFF"/>
<path d="M112.191 47.1677V65.2016H109.276V57.3134H100.915V65.2016H98V47.1677H100.915V54.9002H109.276V47.1677H112.191Z" fill="#00B37E"/>
<path d="M128.942 57.7026C128.942 58.2389 128.908 58.7232 128.84 59.1557H118.075C118.16 60.2974 118.578 61.2142 119.328 61.9062C120.078 62.5981 120.998 62.9441 122.089 62.9441C123.657 62.9441 124.766 62.2781 125.413 60.9461H128.558C128.132 62.2608 127.357 63.342 126.232 64.1896C125.124 65.02 123.743 65.4351 122.089 65.4351C120.742 65.4351 119.532 65.1324 118.458 64.5269C117.401 63.9042 116.566 63.0393 115.952 61.9321C115.356 60.8077 115.057 59.5103 115.057 58.0399C115.057 56.5695 115.347 55.2808 115.927 54.1737C116.523 53.0492 117.35 52.1843 118.407 51.5788C119.481 50.9734 120.708 50.6707 122.089 50.6707C123.419 50.6707 124.604 50.9647 125.643 51.5529C126.683 52.1411 127.493 52.9714 128.073 54.0439C128.652 55.0991 128.942 56.3187 128.942 57.7026ZM125.899 56.7685C125.882 55.6786 125.499 54.8051 124.748 54.1477C123.998 53.4904 123.069 53.1617 121.961 53.1617C120.956 53.1617 120.095 53.4904 119.379 54.1477C118.663 54.7878 118.237 55.6613 118.1 56.7685H125.899Z" fill="#00B37E"/>
<path d="M134.726 46V65.2016H131.811V46H134.726Z" fill="#00B37E"/>
<path d="M141.468 53.006C141.962 52.3486 142.636 51.7951 143.488 51.3453C144.34 50.8955 145.303 50.6707 146.377 50.6707C147.605 50.6707 148.721 50.982 149.727 51.6048C150.75 52.2102 151.551 53.0665 152.131 54.1737C152.71 55.2808 153 56.5522 153 57.988C153 59.4238 152.71 60.7126 152.131 61.8543C151.551 62.9787 150.75 63.8609 149.727 64.501C148.721 65.1238 147.605 65.4351 146.377 65.4351C145.303 65.4351 144.349 65.2189 143.513 64.7864C142.678 64.3367 141.996 63.7831 141.468 63.1257V72H138.553V50.9042H141.468V53.006ZM150.034 57.988C150.034 57.002 149.829 56.1544 149.42 55.4451C149.028 54.7186 148.5 54.1737 147.835 53.8104C147.187 53.4298 146.488 53.2395 145.738 53.2395C145.005 53.2395 144.306 53.4298 143.641 53.8104C142.994 54.191 142.465 54.7445 142.056 55.4711C141.664 56.1976 141.468 57.0539 141.468 58.0399C141.468 59.0259 141.664 59.8909 142.056 60.6347C142.465 61.3613 142.994 61.9148 143.641 62.2954C144.306 62.676 145.005 62.8663 145.738 62.8663C146.488 62.8663 147.187 62.676 147.835 62.2954C148.5 61.8975 149.028 61.3267 149.42 60.5828C149.829 59.839 150.034 58.9741 150.034 57.988Z" fill="#00B37E"/>
</svg>
